<svg version="1.1" id="Layer_1" xmlns="http://www.w3.org/2000/svg" xmlns:xlink="http://www.w3.org/1999/xlink" x="0px" y="0px" width="32px" height="32px" viewBox="0 0 32 32" enable-background="new 0 0 32 32" xml:space="preserve">
  <g id="main">
    <g id="icon">
      <path d="M0.8873,6.55L0.6857,6.686L0.5498,6.887L0.5,7.134L0.5,28.87L0.5498,29.11L0.6857,29.31L0.8873,29.45L1.134,29.5L22,29.5L22,28L18.5,28L18.2,27.97L17.92,27.88L17.66,27.74L17.44,27.56L17.26,27.34L17.12,27.08L17.03,26.8L17,26.5L17,23.5L17.03,23.2L17.12,22.92L17.26,22.66L17.44,22.44L17.66,22.26L17.92,22.12L18.2,22.03L18.5,22L22,22L22,18.5L22.03,18.2L22.12,17.92L22.26,17.66L22.44,17.44L22.66,17.26L22.92,17.12L23.2,17.03L23.5,17L23.5,7.134L23.45,6.887L23.31,6.686L23.11,6.55L22.87,6.5L1.134,6.5zz" fill="#FFFFFF"/>
      <path d="M1.035,6.01L0.7883,6.06L0.6904,6.079L0.6078,6.135L0.4062,6.271L0.3256,6.326L0.2713,6.406L0.1354,6.608L0.07949,6.69L0.05977,6.788L0.009961,7.035L0,7.084L0,7.134L0,28.87L0,28.92L0.009961,28.97L0.05977,29.21L0.07949,29.31L0.1354,29.39L0.2713,29.59L0.3256,29.67L0.4062,29.73L0.6078,29.86L0.6904,29.92L0.7883,29.94L1.035,29.99L1.084,30L1.134,30L22,30L22,29L1.184,29L1.084,28.98L1.046,28.95L1.02,28.92L1,28.82L1,7.184L1.02,7.084L1.046,7.046L1.084,7.02L1.184,7L22.82,7L22.91,7.02L22.95,7.046L22.98,7.084L23,7.184L23,17.09L23.2,17.03L23.5,17L24,17L24,7.134L24,7.084L23.99,7.035L23.94,6.788L23.92,6.69L23.86,6.608L23.73,6.406L23.67,6.326L23.59,6.271L23.39,6.135L23.31,6.079L23.21,6.06L22.96,6.01L22.92,6L22.87,6L1.134,6L1.084,6zz" fill="#cfcfcf"/>
      <path d="M15.73,15.86L15.55,15.99L8.62,24.08L8.276,23.65L10.99,20.5L8.74,17.78L8.565,17.65L8.352,17.6L8.138,17.65L7.963,17.78L2,24.44L2,28.02L22,28.02L22,28L18.5,28L18.2,27.97L17.92,27.88L17.66,27.74L17.44,27.56L17.26,27.34L17.12,27.08L17.03,26.8L17,26.5L17,23.5L17.03,23.2L17.12,22.92L17.26,22.66L17.44,22.44L17.66,22.26L17.92,22.12L18.2,22.03L18.5,22L21.31,22L16.32,15.99L16.15,15.86L15.94,15.82zz" fill="#cfcfcf"/>
      <path d="M7.089,9.635L6.635,9.77L6.218,9.986L5.847,10.27L5.53,10.62L5.274,11.03L5.089,11.48L4.981,11.96L4.422,12.23L3.981,12.65L3.691,13.19L3.614,13.49L3.587,13.81L3.661,14.38L3.864,14.83L4.172,15.16L4.557,15.4L4.994,15.56L5.457,15.65L6.355,15.7L6.427,15.72L11.15,15.72L11.29,15.7L11.73,15.64L12.12,15.5L12.46,15.28L12.74,15L12.96,14.66L13.12,14.27L13.22,13.84L13.25,13.38L13.2,12.91L13.07,12.46L12.85,12.06L12.57,11.72L12.22,11.43L11.83,11.21L11.39,11.07L10.92,11.03L10.43,11.08L9.968,11.23L9.792,10.88L9.573,10.57L9.314,10.29L9.02,10.05L8.694,9.853L8.342,9.709L7.966,9.619L7.573,9.588zz" fill-rule="evenodd" fill="#cfcfcf"/>
      <path d="M6.887,0.5498L6.686,0.6857L6.55,0.8873L6.5,1.134L6.5,5L23.18,5L23.55,5.037L23.89,5.143L24.2,5.31L24.47,5.532L24.69,5.801L24.86,6.11L24.96,6.451L25,6.817L25,17L26.5,17L26.8,17.03L27.08,17.12L27.34,17.26L27.56,17.44L27.74,17.66L27.88,17.92L27.97,18.2L28,18.5L28,22L29.5,22L29.5,1.134L29.45,0.8873L29.31,0.6857L29.11,0.5498L28.87,0.5L7.134,0.5zz" fill="#FFFFFF"/>
      <path d="M6.693,0.08926L6.333,0.3326L6.089,0.6932L6,1.134L6,5L7,5L7,1.134L7.039,1.039L7.134,1L28.87,1L28.96,1.039L29,1.134L29,22L30,22L30,1.134L29.91,0.6932L29.67,0.3326L29.31,0.08926L28.87,0L7.134,0zz" fill="#cfcfcf"/>
      <path d="M25,17L26.5,17L26.8,17.03L27.08,17.12L27.34,17.26L27.56,17.44L27.74,17.66L27.88,17.92L27.97,18.2L28,18.5L28,16.98L27.9,16.72L25,13.22zz" fill="#cfcfcf"/>
      <path d="M13.21,3.615L12.86,3.691L12.23,3.979L11.7,4.424L11.29,5L15.86,5L15.45,4.425L14.91,3.979L14.28,3.691L13.93,3.615L13.57,3.589zz" fill-rule="evenodd" fill="#cfcfcf"/>
    </g>
    <g id="overlay">
      <path d="M31.5,23h-4.5v-4.5c0,-0.276,-0.224,-0.5,-0.5,-0.5h-3c-0.276,0,-0.5,0.224,-0.5,0.5v4.5h-4.5c-0.276,0,-0.5,0.224,-0.5,0.5v3c0,0.276,0.224,0.5,0.5,0.5h4.5v4.5c0,0.276,0.224,0.5,0.5,0.5h3c0.276,0,0.5,-0.224,0.5,-0.5v-4.5h4.5c0.276,0,0.5,-0.224,0.5,-0.5v-3C32,23.224,31.776,23,31.5,23z" fill-rule="evenodd" fill="#4EA17E"/>
    </g>
  </g>
</svg>