<svg version="1.1" id="Layer_1" xmlns="http://www.w3.org/2000/svg" xmlns:xlink="http://www.w3.org/1999/xlink" x="0px" y="0px" width="16px" height="16px" viewBox="0 0 16 16" enable-background="new 0 0 16 16" xml:space="preserve">
  <g id="main">
    <g id="icon">
      <path d="M0.867,0.5473L0.6762,0.6762L0.5473,0.867L0.5,1.1L0.5,13.9L0.5473,14.13L0.6762,14.32L0.867,14.45L1.1,14.5L9,14.5L9,14L7.3,14L7.038,13.97L6.794,13.9L6.381,13.62L6.102,13.21L6.026,12.96L6,12.7L6,10.3L6.026,10.04L6.102,9.794L6.381,9.381L6.794,9.102L7.038,9.026L7.3,9L9,9L9,7.3L9.026,7.038L9.102,6.794L9.381,6.381L9.794,6.102L10.04,6.026L10.3,6L12.7,6L12.96,6.026L13.21,6.102L13.62,6.381L13.9,6.794L13.97,7.038L14,7.3L14,9L14.5,9L14.5,1.1L14.45,0.867L14.32,0.6762L14.13,0.5473L13.9,0.5L1.1,0.5zM14,14.48L14.13,14.45L14.32,14.32L14.45,14.13L14.48,14L14,14zz" fill="#FFFFFF"/>
      <path d="M1,0.009961L0.7674,0.05742L0.6697,0.07715L0.5871,0.133L0.3963,0.2619L0.3162,0.3162L0.2619,0.3963L0.133,0.5871L0.07715,0.6697L0.05742,0.7674L0.009961,1L0,1.05L0,1.1L0,13.9L0,13.95L0.009961,14L0.05742,14.23L0.07715,14.33L0.133,14.41L0.2619,14.6L0.3162,14.68L0.3963,14.74L0.5871,14.87L0.6697,14.92L0.7674,14.94L1,14.99L1.05,15L1.1,15L9,15L9,14L7.3,14L1.151,14L1.064,13.98L1.036,13.96L1.017,13.94L1,13.85L1,1.151L1.017,1.064L1.036,1.036L1.064,1.017L1.151,1L13.85,1L13.94,1.017L13.96,1.036L13.98,1.064L14,1.151L14,7.3L14,9L15,9L15,1.1L15,1.05L14.99,1L14.94,0.7674L14.92,0.6697L14.87,0.5871L14.74,0.3963L14.68,0.3162L14.6,0.2619L14.41,0.133L14.33,0.07715L14.23,0.05742L14,0.009961L13.95,0L13.9,0L1.1,0L1.05,0zM14,14.99L14.23,14.94L14.33,14.92L14.41,14.87L14.6,14.74L14.68,14.68L14.74,14.6L14.87,14.41L14.92,14.33L14.94,14.23L14.99,14L14,14zz" fill="#cfcfcf"/>
      <path d="M9.549,6.035L9.454,6.109L7.055,9.025L7.3,9L9,9L9,7.3L9.026,7.038L9.102,6.794L9.381,6.381L9.794,6.102L9.847,6.086L9.781,6.035L9.665,6.01zM5.377,7.056L5.28,7.131L2,10.95L2,13L6.038,13L6.026,12.96L6,12.7L6,10.31L5.641,10.74L5.452,10.49L6.942,8.69L5.707,7.132L5.611,7.057L5.494,7.031zz" fill="#cfcfcf"/>
      <path d="M4.625,2.028L4.362,2.11L4.121,2.239L3.907,2.412L3.576,2.866L3.468,3.137L3.406,3.43L3.083,3.593L2.828,3.846L2.66,4.168L2.6,4.54L2.643,4.887L2.76,5.156L2.938,5.357L3.161,5.5L3.681,5.649L4.201,5.682L4.242,5.69L6.972,5.69L7.057,5.681L7.311,5.645L7.535,5.559L7.729,5.429L7.891,5.259L8.112,4.821L8.189,4.284L8.162,3.998L8.083,3.732L7.959,3.491L7.795,3.281L7.595,3.108L7.366,2.978L7.113,2.895L6.842,2.866L6.555,2.898L6.29,2.99L6.062,2.589L5.741,2.276L5.349,2.073L4.905,2zz" fill-rule="evenodd" fill="#cfcfcf"/>
    </g>
    <g id="overlay">
      <path d="M15.7,10h-2.7V7.3c0,-0.166,-0.134,-0.3,-0.3,-0.3h-2.4c-0.166,0,-0.3,0.134,-0.3,0.3v2.7H7.3c-0.166,0,-0.3,0.134,-0.3,0.3v2.4c0,0.166,0.134,0.3,0.3,0.3h2.7v2.7c0,0.166,0.134,0.3,0.3,0.3h2.4c0.166,0,0.3,-0.134,0.3,-0.3v-2.7h2.7c0.166,0,0.3,-0.134,0.3,-0.3v-2.4C16,10.134,15.866,10,15.7,10z" fill="#4EA17E"/>
    </g>
  </g>
</svg>