<svg version="1.1" id="Layer_1" xmlns="http://www.w3.org/2000/svg" xmlns:xlink="http://www.w3.org/1999/xlink" x="0px" y="0px" width="16px" height="16px" viewBox="0 0 16 16" enable-background="new 0 0 16 16" xml:space="preserve">
  <g id="main">
    <g id="icon">
      <path d="M3.867,0.5473L3.676,0.6762L3.547,0.867L3.5,1.1L3.5,2L11.08,2L11.47,2.039L11.83,2.151L12.15,2.327L12.44,2.561L12.67,2.845L12.85,3.171L12.96,3.531L13,3.917L13,6.038L13.21,6.102L13.62,6.381L13.9,6.794L13.97,7.038L14,7.3L14,9L14.5,9L14.5,1.1L14.45,0.867L14.32,0.6762L14.13,0.5473L13.9,0.5L4.1,0.5zz" fill="#FFFFFF"/>
      <path d="M3.672,0.08652L3.322,0.3225L3.087,0.6721L3,1.1L3,2L4,2L4,1.1L4.03,1.03L4.1,1L13.9,1L13.97,1.03L14,1.1L14,7.3L14,9L15,9L15,1.1L14.91,0.6721L14.68,0.3225L14.33,0.08652L13.9,0L4.1,0zz" fill="#cfcfcf"/>
      <path d="M0.867,3.547L0.6762,3.676L0.5473,3.867L0.5,4.1L0.5,13.9L0.5473,14.13L0.6762,14.32L0.867,14.45L1.1,14.5L9,14.5L9,14L7.3,14L7.038,13.97L6.794,13.9L6.381,13.62L6.102,13.21L6.026,12.96L6,12.7L6,10.3L6.026,10.04L6.102,9.794L6.381,9.381L6.794,9.102L7.038,9.026L7.3,9L9,9L9,7.3L9.026,7.038L9.102,6.794L9.381,6.381L9.794,6.102L10.04,6.026L10.3,6L11.5,6L11.5,4.1L11.45,3.867L11.32,3.676L11.13,3.547L10.9,3.5L1.1,3.5zz" fill="#FFFFFF"/>
      <path d="M1,3.01L0.7674,3.057L0.6697,3.077L0.5871,3.133L0.3963,3.262L0.3162,3.316L0.2619,3.396L0.133,3.587L0.07715,3.67L0.05742,3.767L0.009961,4L0,4.05L0,4.1L0,13.9L0,13.95L0.009961,14L0.05742,14.23L0.07715,14.33L0.133,14.41L0.2619,14.6L0.3162,14.68L0.3963,14.74L0.5871,14.87L0.6697,14.92L0.7674,14.94L1,14.99L1.05,15L1.1,15L9,15L9,14L7.3,14L1.151,14L1.064,13.98L1.036,13.96L1.017,13.94L1,13.85L1,4.151L1.017,4.064L1.036,4.036L1.064,4.017L1.151,4L10.85,4L10.94,4.017L10.96,4.036L10.98,4.064L11,4.151L11,6L12,6L12,4.1L12,4.05L11.99,4L11.94,3.767L11.92,3.67L11.87,3.587L11.74,3.396L11.68,3.316L11.6,3.262L11.41,3.133L11.33,3.077L11.23,3.057L11,3.01L10.95,3L10.9,3L1.1,3L1.05,3zz" fill="#cfcfcf"/>
      <path d="M7.528,7.911L4.547,11.53L4.399,11.34L5.564,9.93L4.598,8.712L4.431,8.633L4.264,8.711L1.7,11.7L1.7,13.3L6.166,13.3L6.102,13.21L6.026,12.96L6,12.7L6,10.3L6.026,10.04L6.102,9.794L6.381,9.381L6.794,9.102L7.038,9.026L7.3,9L8.727,9L7.859,7.911L7.693,7.834zz" fill="#cfcfcf"/>
      <path d="M3.749,4.785L3.396,5.019L3.139,5.371L3.008,5.809L2.758,5.936L2.56,6.131L2.43,6.381L2.383,6.67L2.416,6.939L2.507,7.148L2.645,7.304L2.818,7.414L3.221,7.53L3.624,7.556L3.656,7.562L5.773,7.562L5.839,7.555L6.21,7.46L6.486,7.228L6.658,6.888L6.717,6.471L6.635,6.043L6.411,5.693L6.079,5.457L5.672,5.371L5.244,5.467L5.067,5.157L4.819,4.914L4.515,4.756L4.17,4.7zz" fill-rule="evenodd" fill="#cfcfcf"/>
    </g>
    <g id="overlay">
      <path d="M15.7,10h-2.7V7.3c0,-0.166,-0.134,-0.3,-0.3,-0.3h-2.4c-0.166,0,-0.3,0.134,-0.3,0.3v2.7H7.3c-0.166,0,-0.3,0.134,-0.3,0.3v2.4c0,0.166,0.134,0.3,0.3,0.3h2.7v2.7c0,0.166,0.134,0.3,0.3,0.3h2.4c0.166,0,0.3,-0.134,0.3,-0.3v-2.7h2.7c0.166,0,0.3,-0.134,0.3,-0.3v-2.4C16,10.134,15.866,10,15.7,10z" fill="#4EA17E"/>
    </g>
  </g>
</svg>