<?xml version="1.0" encoding="UTF-8"?>
<!DOCTYPE svg PUBLIC "-//W3C//DTD SVG 1.1//EN" "http://www.w3.org/Graphics/SVG/1.1/DTD/svg11.dtd">
<svg version="1.1" id="Layer_1" xmlns="http://www.w3.org/2000/svg" xmlns:xlink="http://www.w3.org/1999/xlink" x="0px" y="0px" width="16px" height="16px" viewBox="0 0 16 16" enable-background="new 0 0 16 16" xml:space="preserve">
  <g id="main">
    <g id="icon">
      <path d="M1.601,0.07754L1.289,0.2887L1.078,0.6012L1,0.983L1,14.02L1.078,14.4L1.289,14.71L1.601,14.92L1.983,15L7.014,15L7,14.9L7,13L3,13L2,13L2,11L3,11L3,9L2,9L2,7L3,7L3,5L2,5L2,3L3,3L3,2L12,2L12,7L14,7L14,0.983L13.92,0.6012L13.71,0.2887L13.4,0.07754L13.02,0L1.983,0zz" fill="#eab765"/>
      <path d="M0,5L1,5L1,3L0,3zM0,9L1,9L1,7L0,7zM0,13L1,13L1,11L0,11zz" fill="#797979"/>
      <path d="M1,5L2,5L2,3L1,3zM1,9L2,9L2,7L1,7zM1,13L2,13L2,11L1,11zz" fill="#F1F2F2"/>
      <path d="M2,5L3,5L3,3L2,3zM2,9L3,9L3,7L2,7zM2,13L3,13L3,11L2,11zz" fill="#B4B4B5"/>
      <path d="M3,13L7,13L7,9.1L7.043,8.677L7.165,8.283L7.359,7.927L7.616,7.616L7.927,7.359L8.283,7.165L8.677,7.043L9.1,7L12,7L12,2L3,2zz" fill="#FFFFFF"/>
      <path d="M4,7.304L8.028,7.304L8.283,7.165L8.677,7.043L9.1,7L11,7L11,3L4,3zz" fill="#E6E9ED"/>
      <path d="M4,12L7,12L7,9.1L7.043,8.677L7.165,8.283L7.359,7.927L7.616,7.616L7.756,7.5L4,7.5zz" fill="#E6E9ED"/>
      <path d="M5.598,8.874L5.238,8.982L4.855,9.188L4.444,9.504L4,9.941L4,12L7,12L7,9.249L6.907,9.186L6.589,9.02L6.269,8.904L5.94,8.852zz" fill="#4EA17E"/>
      <path d="M8.743,3.835L6.317,6.3L6.197,6.167L7.145,5.208L6.359,4.379L6.223,4.326L6.087,4.379L4,6.41L4,7.5L7.756,7.5L7.927,7.359L8.283,7.165L8.677,7.043L9.1,7L11,7L11,5.963L10.97,5.884L9.012,3.835L8.878,3.782zz" fill="#eab765"/>
    </g>
    <g id="overlay">
      <path d="M14.9,15.5H9.1c-0.33,0,-0.6,-0.27,-0.6,-0.6V9.1c0,-0.33,0.27,-0.6,0.6,-0.6h5.8c0.33,0,0.6,0.27,0.6,0.6v5.8C15.5,15.23,15.23,15.5,14.9,15.5z" fill="#FFFFFF" stroke="#6D6E71" stroke-width="1" stroke-miterlimit="10"/>
      <circle cx="13.1897" cy="10.6422" r="1.0889" fill="#F3CA69"/>
      <path d="M14.6,14.1595l-1.5051,-2.1123c-0.0491,-0.0682,-0.1404,-0.068,-0.1892,0.0004l-0.6725,0.9465l-1.0617,-1.4702c-0.049,-0.0677,-0.1464,-0.0677,-0.1953,0L9.537,13.4957c-0.0158,0.0218,-0.037,0.0484,-0.037,0.0756V14.6h5.1V14.1595z" fill="#4EA17E"/>
    </g>
  </g>
</svg>