<svg version="1.1" id="Layer_1" xmlns="http://www.w3.org/2000/svg" xmlns:xlink="http://www.w3.org/1999/xlink" x="0px" y="0px" width="32px" height="32px" viewBox="0 0 32 32" enable-background="new 0 0 32 32" xml:space="preserve">
  <g id="main">
    <g id="icon">
      <path d="M0.9885,0.5629L0.7342,0.7342L0.5629,0.9885L0.5,1.3L0.5,28.7L0.5629,29.01L0.7342,29.27L0.9885,29.44L1.3,29.5L17.06,29.5L17.04,29.34L17.07,29.05L17.15,28.77L17.29,28.51L17.48,28.28L20.76,25L17.48,21.72L17.29,21.49L17.15,21.23L17.07,20.95L17.04,20.66L17.07,20.38L17.15,20.1L17.29,19.84L17.48,19.6L19.6,17.48L19.83,17.29L20.09,17.16L20.37,17.07L20.66,17.04L20.96,17.07L21.24,17.16L21.5,17.29L21.72,17.48L25,20.76L28.27,17.48L28.5,17.29L28.76,17.16L29.04,17.07L29.33,17.04L29.5,17.06L29.5,1.3L29.44,0.9885L29.27,0.7342L29.01,0.5629L28.7,0.5L1.3,0.5zM29.24,25L29.5,25.26L29.5,24.74zM24.74,29.5L25.26,29.5L25,29.24zz" fill="#FFFFFF"/>
      <path d="M1.201,0.009961L0.8896,0.07266L0.7918,0.09238L0.709,0.1482L0.4547,0.3197L0.374,0.374L0.3197,0.4547L0.1482,0.709L0.09238,0.7918L0.07266,0.8896L0.009961,1.201L0,1.25L0,1.3L0,28.7L0,28.75L0.009961,28.8L0.07266,29.11L0.09238,29.21L0.1482,29.29L0.3197,29.55L0.374,29.63L0.4547,29.68L0.709,29.85L0.7918,29.91L0.8896,29.93L1.201,29.99L1.25,30L1.3,30L17.21,30L17.15,29.9L17.07,29.62L17.04,29.34L17.07,29.05L17.09,29L1.35,29L1.185,28.97L1.094,28.91L1.033,28.81L1,28.65L1,1.35L1.033,1.185L1.094,1.094L1.185,1.033L1.35,1L28.65,1L28.81,1.033L28.91,1.094L28.97,1.185L29,1.35L29,17.08L29.04,17.07L29.33,17.04L29.63,17.07L29.91,17.16L30,17.2L30,1.3L30,1.25L29.99,1.201L29.93,0.8896L29.91,0.7918L29.85,0.709L29.68,0.4547L29.63,0.374L29.55,0.3197L29.29,0.1482L29.21,0.09238L29.11,0.07266L28.8,0.009961L28.75,0L28.7,0L1.3,0L1.25,0zM29.24,25L30,25.76L30,24.24zM24.24,30L25.76,30L25,29.24zz" fill="#cfcfcf"/>
      <path d="M19.85,12.19L19.62,12.36L10.61,22.88L10.16,22.31L13.68,18.22L10.76,14.68L10.53,14.51L10.26,14.45L9.98,14.51L9.752,14.68L2,23.35L2,28L17.76,28L20.76,25L17.48,21.72L17.29,21.49L17.15,21.23L17.07,20.95L17.04,20.66L17.07,20.38L17.15,20.1L17.29,19.84L17.48,19.6L19.6,17.48L19.83,17.29L20.09,17.16L20.37,17.07L20.66,17.04L20.96,17.07L21.24,17.16L21.5,17.29L21.72,17.48L25,20.76L26.41,19.34L20.62,12.36L20.39,12.19L20.12,12.13zz" fill="#cfcfcf"/>
      <path d="M8.617,4.095L8.026,4.271L7.485,4.551L7.002,4.923L6.59,5.378L6.258,5.903L6.017,6.488L5.877,7.121L5.498,7.27L5.151,7.473L4.842,7.725L4.577,8.019L4.362,8.351L4.2,8.715L4.1,9.105L4.065,9.518L4.09,9.915L4.161,10.27L4.274,10.58L4.425,10.85L4.825,11.28L5.326,11.59L5.894,11.79L6.496,11.91L7.663,11.98L7.756,12L13.89,12L14.08,11.98L14.65,11.9L15.16,11.72L15.59,11.44L15.96,11.07L16.25,10.63L16.46,10.12L16.58,9.566L16.63,8.964L16.57,8.347L16.39,7.773L16.11,7.253L15.74,6.8L15.29,6.426L14.78,6.144L14.21,5.965L13.6,5.903L12.96,5.972L12.36,6.171L12.13,5.718L11.85,5.306L11.51,4.942L11.13,4.631L10.7,4.379L10.24,4.191L9.757,4.074L9.246,4.034zz" fill-rule="evenodd" fill="#cfcfcf"/>
    </g>
    <g id="overlay">
      <path d="M31.91,29.789l-2.121,2.121c-0.195,0.195,-0.512,0.195,-0.707,0L25,27.828l-3.982,3.982c-0.195,0.195,-0.512,0.195,-0.707,0l-2.121,-2.121c-0.195,-0.195,-0.195,-0.512,0,-0.707L22.172,25l-3.982,-3.982c-0.195,-0.195,-0.195,-0.512,0,-0.707l2.121,-2.121c0.195,-0.195,0.512,-0.195,0.707,0L25,22.172l3.982,-3.982c0.195,-0.195,0.512,-0.195,0.707,0l2.121,2.121c0.195,0.195,0.195,0.512,0,0.707L27.828,25l4.082,4.082C32.106,29.277,32.106,29.594,31.91,29.789z" fill-rule="evenodd" fill="#CD4C32"/>
    </g>
  </g>
</svg>