<svg version="1.1" id="Layer_1" xmlns="http://www.w3.org/2000/svg" xmlns:xlink="http://www.w3.org/1999/xlink" x="0px" y="0px" width="16px" height="16px" viewBox="0 0 16 16" enable-background="new 0 0 16 16" xml:space="preserve">
  <g id="main">
    <g id="icon">
      <path d="M0.867,0.5473L0.6762,0.6762L0.5473,0.867L0.5,1.1L0.5,13.9L0.5473,14.13L0.6762,14.32L0.867,14.45L1.1,14.5L6.049,14.5L6.001,14.25L6.097,13.75L6.218,13.52L6.387,13.32L8.237,11.47L6.387,9.618L6.221,9.416L6.1,9.19L6.025,8.944L6,8.684L6.025,8.424L6.1,8.178L6.221,7.951L6.387,7.75L7.749,6.388L7.951,6.222L8.177,6.101L8.423,6.026L8.683,6.001L8.943,6.026L9.189,6.101L9.416,6.222L9.617,6.388L11.47,8.238L13.32,6.388L13.52,6.222L13.75,6.101L13.99,6.026L14.25,6.001L14.5,6.025L14.5,1.1L14.45,0.867L14.32,0.6762L14.13,0.5473L13.9,0.5L1.1,0.5zz" fill="#FFFFFF"/>
      <path d="M1,0.009961L0.7674,0.05742L0.6697,0.07715L0.5871,0.133L0.3963,0.2619L0.3162,0.3162L0.2619,0.3963L0.133,0.5871L0.07715,0.6697L0.05742,0.7674L0.009961,1L0,1.05L0,1.1L0,13.9L0,13.95L0.009961,14L0.05742,14.23L0.07715,14.33L0.133,14.41L0.2619,14.6L0.3162,14.68L0.3963,14.74L0.5871,14.87L0.6697,14.92L0.7674,14.94L1,14.99L1.05,15L1.1,15L6.235,15L6.218,14.98L6.097,14.75L6.001,14.25L6.05,14L1.151,14L1.064,13.98L1.036,13.96L1.017,13.94L1,13.85L1,1.151L1.017,1.064L1.036,1.036L1.064,1.017L1.151,1L13.85,1L13.94,1.017L13.96,1.036L13.98,1.064L14,1.151L14,6.026L14.25,6.001L14.51,6.026L14.76,6.101L14.98,6.222L15,6.236L15,1.1L15,1.05L14.99,1L14.94,0.7674L14.92,0.6697L14.87,0.5871L14.74,0.3963L14.68,0.3162L14.6,0.2619L14.41,0.133L14.33,0.07715L14.23,0.05742L14,0.009961L13.95,0L13.9,0L1.1,0L1.05,0zM14.7,11.47L15,11.77L15,11.17zM11.17,15L11.77,15L11.47,14.7zz" fill="#cfcfcf"/>
      <path d="M9.549,6.035L9.454,6.109L9.378,6.202L9.416,6.222L9.617,6.388L11.47,8.238L11.53,8.179L9.877,6.109L9.781,6.035L9.665,6.01zM5.377,7.056L5.28,7.131L2,10.95L2,13L6.705,13L8.237,11.47L6.486,9.717L5.641,10.74L5.452,10.49L6.281,9.49L6.221,9.416L6.1,9.19L6.025,8.944L6,8.684L6.025,8.424L6.1,8.178L6.221,7.951L6.29,7.868L5.707,7.132L5.611,7.057L5.494,7.031zz" fill="#cfcfcf"/>
      <path d="M4.625,2.028L4.362,2.11L4.121,2.239L3.907,2.412L3.576,2.866L3.468,3.137L3.406,3.43L3.083,3.593L2.828,3.846L2.66,4.168L2.6,4.54L2.643,4.887L2.76,5.156L2.938,5.357L3.161,5.5L3.681,5.649L4.201,5.682L4.242,5.69L6.972,5.69L7.057,5.681L7.311,5.645L7.535,5.559L7.729,5.429L7.891,5.259L8.112,4.821L8.189,4.284L8.162,3.998L8.083,3.732L7.959,3.491L7.795,3.281L7.595,3.108L7.366,2.978L7.113,2.895L6.842,2.866L6.555,2.898L6.29,2.99L6.062,2.589L5.741,2.276L5.349,2.073L4.905,2zz" fill-rule="evenodd" fill="#cfcfcf"/>
    </g>
    <g id="overlay">
      <path d="M15.906,14.544l-1.362,1.362c-0.125,0.125,-0.329,0.125,-0.454,0l-2.622,-2.622l-2.557,2.557c-0.125,0.125,-0.329,0.125,-0.454,0l-1.362,-1.362c-0.125,-0.125,-0.125,-0.329,0,-0.454l2.557,-2.557L7.094,8.911c-0.125,-0.125,-0.125,-0.329,0,-0.454l1.362,-1.362c0.125,-0.125,0.329,-0.125,0.454,0l2.557,2.557l2.557,-2.557c0.125,-0.125,0.329,-0.125,0.454,0l1.362,1.362c0.125,0.125,0.125,0.329,0,0.454l-2.557,2.557l2.622,2.622C16.031,14.215,16.031,14.418,15.906,14.544z" fill-rule="evenodd" fill="#CD4C32"/>
    </g>
  </g>
</svg>