<?xml version="1.0" encoding="UTF-8"?>
<!DOCTYPE svg PUBLIC "-//W3C//DTD SVG 1.1//EN" "http://www.w3.org/Graphics/SVG/1.1/DTD/svg11.dtd">
<svg version="1.1" id="Layer_1" xmlns="http://www.w3.org/2000/svg" xmlns:xlink="http://www.w3.org/1999/xlink" x="0px" y="0px" width="32px" height="32px" viewBox="0 0 32 32" enable-background="new 0 0 32 32" xml:space="preserve">
  <g id="main">
    <g id="icon">
      <path d="M5.038,0.02637L4.794,0.1021L4.381,0.3807L4.102,0.7939L4.026,1.038L4,1.3L4,28.7L4.026,28.96L4.102,29.21L4.381,29.62L4.794,29.9L5.038,29.97L5.3,30L18,30L18,28L7,28L6,28L5,28L5,26L6,26L6,24L5,24L5,22L6,22L6,20L5,20L5,18L6,18L6,16L5,16L5,14L6,14L6,12L5,12L5,10L6,10L6,8L5,8L5,6L6,6L6,4L5,4L5,2L6,2L7,2L26,2L26,18L28,18L28,1.3L27.97,1.038L27.9,0.7939L27.62,0.3807L27.21,0.1021L26.96,0.02637L26.7,0L5.3,0zz" fill="#eab765"/>
      <path d="M6,28L18,28L18,20.1L18.04,19.68L18.17,19.28L18.36,18.93L18.62,18.62L18.93,18.36L19.28,18.17L19.68,18.04L20.1,18L26,18L26,2L6,2zz" fill="#FFFFFF"/>
      <path d="M2,4L4,4L4,2L2,2zM2,8L4,8L4,6L2,6zM2,12L4,12L4,10L2,10zM2,16L4,16L4,14L2,14zM2,20L4,20L4,18L2,18zM2,24L4,24L4,22L2,22zM2,28L4,28L4,26L2,26zz" fill="#E6E9ED"/>
      <path d="M4,4L5,4L5,2L4,2zM4,8L5,8L5,6L4,6zM4,12L5,12L5,10L4,10zM4,16L5,16L5,14L4,14zM4,20L5,20L5,18L4,18zM4,24L5,24L5,22L4,22zM4,28L5,28L5,26L4,26zz" fill="#F1F2F2"/>
      <path d="M5,4L7,4L7,2L5,2zM5,8L7,8L7,6L5,6zM5,12L7,12L7,10L5,10zM5,16L7,16L7,14L5,14zM5,20L7,20L7,18L5,18zM5,24L7,24L7,22L5,22zM5,28L7,28L7,26L5,26zz" fill="#B4B4B5"/>
      <path d="M9,14L24,14L24,3L9,3zz" fill="#E6E9ED"/>
      <path d="M9,27L18,27L18,20.1L18.04,19.68L18.17,19.28L18.36,18.93L18.62,18.62L18.93,18.36L19.28,18.17L19.68,18.04L20.1,18L24,18L24,16L9,16zz" fill="#E6E9ED"/>
      <path d="M12.42,19.25L11.65,19.48L10.83,19.93L9.951,20.61L9,21.55L9,26L18,26L18,21.89L16.61,20.87L15.23,19.92L14.55,19.57L13.86,19.32L13.16,19.2zz" fill="#4EA17E"/>
      <path d="M19.3,4.53L19.17,4.621L13.97,10.26L13.71,9.953L15.74,7.76L14.06,5.865L13.92,5.773L13.76,5.743L13.6,5.773L13.47,5.864L9,10.51L9,13L24,13L24,9.486L23.93,9.306L19.74,4.621L19.61,4.53L19.45,4.5zz" fill="#eab765"/>
    </g>
    <g id="overlay">
      <path d="M30.9,31.5H20.1c-0.33,0,-0.6,-0.27,-0.6,-0.6V20.1c0,-0.33,0.27,-0.6,0.6,-0.6h10.8c0.33,0,0.6,0.27,0.6,0.6v10.8C31.5,31.23,31.23,31.5,30.9,31.5z" fill="#FFFFFF" stroke="#6D6E71" stroke-width="1" stroke-miterlimit="10"/>
      <circle cx="28.2252" cy="22.4867" r="1.8667" fill="#F3CA69"/>
      <path d="M30,29.2529l-2.6528,-3.5825c-0.0859,-0.1156,-0.2548,-0.1153,-0.3403,0.0006l-1.1816,1.6053l-1.8606,-2.4936c-0.0857,-0.1148,-0.2573,-0.1148,-0.3431,0l-2.538,3.3444c-0.0277,0.037,-0.0836,0.082,-0.0836,0.1283V30h9V29.2529z" fill="#4EA17E"/>
    </g>
  </g>
</svg>